External Loads File
version=1
nRows=92
nColumns=13
Range=5.000000e-03-10 seconds
endheader
time 	forceRightX 	forceRightY 	forceRightZ 	pointRightX 	pointRightY 	pointRightZ 	forceLeftX 	forceLeftY 	forceLeftZ 	pointLeftX 	pointLeftY 	pointLeftZ 		
7.505000 292.917464 821.771973 -0.000000 0.272233 0.153710 -0.113234 -50.569485 116.077020 -0.000000 0.309241 0.507272 -0.359234
7.510000 287.143229 758.262263 -0.000000 0.262449 0.154853 -0.113037 -59.167918 120.600556 -0.000000 0.318547 0.506528 -0.359557
7.515000 277.421551 690.917397 -0.000000 0.253173 0.156944 -0.112971 -67.873802 123.391669 -0.000000 0.327641 0.505153 -0.359889
7.520000 265.567582 620.000067 -0.000000 0.243936 0.160049 -0.112684 -76.151983 125.183806 -0.000000 0.336639 0.503245 -0.359474
7.525000 251.563871 546.913502 -0.000000 0.234582 0.163316 -0.112604 -83.888788 126.576959 -0.000000 0.345243 0.500712 -0.359605
7.530000 236.800964 472.609961 -0.000000 0.225453 0.167130 -0.113007 -90.794973 128.404142 -0.000000 0.353714 0.495850 -0.359654
7.535000 220.153434 398.938515 -0.000000 0.216395 0.172349 -0.113472 -97.185513 131.168568 -0.000000 0.361810 0.491944 -0.359618
7.540000 200.768026 327.489221 -0.000000 0.208089 0.177935 -0.113438 -103.479985 135.238827 -0.000000 0.369426 0.488338 -0.359633
7.545000 179.981634 258.609813 -0.000000 0.200128 0.184090 -0.113484 -109.456445 141.453519 -0.000000 0.376772 0.484148 -0.359508
7.550000 158.334401 193.052385 -0.000000 0.192663 0.190549 -0.113593 -115.044277 150.591479 -0.000000 0.383404 0.477176 -0.358814
7.555000 135.398756 132.452886 -0.000000 0.185619 0.197405 -0.113673 -120.955567 162.810123 -0.000000 0.389778 0.470962 -0.359067
7.560000 112.353995 77.252770 -0.000000 0.178856 0.204690 -0.113905 -126.821739 178.976523 -0.000000 0.395800 0.463642 -0.359328
7.565000 89.719183 28.391361 -0.000000 0.172562 0.212264 -0.114078 -132.845083 199.356827 -0.000000 0.401378 0.455421 -0.359864
7.570000 68.232438 -13.498593 -0.000000 0.166705 0.220336 -0.114161 -139.204523 224.055825 -0.000000 0.406502 0.447097 -0.360997
7.575000 48.585946 -48.189959 -0.000000 0.161304 0.228660 -0.114166 -145.633607 253.213667 -0.000000 0.410988 0.437987 -0.361431
7.580000 31.089775 -75.724017 -0.000000 0.156369 0.237306 -0.114199 -151.230960 286.977355 -0.000000 0.415210 0.427756 -0.361832
7.585000 16.295406 -96.188159 -0.000000 0.152114 0.246153 -0.113950 -156.710432 324.284377 -0.000000 0.418779 0.417702 -0.362219
7.590000 4.553894 -110.154844 -0.000000 0.148301 0.255226 -0.113802 -162.274876 364.217562 -0.000000 0.421846 0.408581 -0.362444
7.595000 -4.917955 -118.378755 -0.000000 0.145190 0.264434 -0.113451 -165.137758 407.016280 -0.000000 0.424514 0.397808 -0.362583
7.600000 -12.016840 -121.680442 -0.000000 0.142355 0.273941 -0.113422 -165.840791 451.330856 -0.000000 0.426719 0.386907 -0.362674
7.605000 -16.899650 -121.067401 -0.000000 0.140292 0.283674 -0.113242 -164.565384 496.157012 -0.000000 0.428577 0.375981 -0.362455
7.610000 -19.854945 -117.572395 -0.000000 0.138727 0.293376 -0.113164 -161.573606 540.662945 -0.000000 0.429884 0.364987 -0.362416
7.615000 -21.436841 -112.115279 -0.000000 0.137764 0.303491 -0.113067 -156.173380 584.522072 -0.000000 0.430774 0.353912 -0.362513
7.620000 -21.800853 -105.542605 -0.000000 0.137382 0.313471 -0.112987 -149.644994 627.109429 -0.000000 0.431161 0.342790 -0.362753
7.625000 -21.281488 -98.491396 -0.000000 0.137692 0.323419 -0.112922 -142.660806 668.330331 -0.000000 0.430728 0.331827 -0.362871
7.630000 -20.486561 -91.343883 -0.000000 0.138576 0.334009 -0.112900 -133.613369 708.804250 -0.000000 0.430189 0.320904 -0.362618
7.635000 -19.413565 -84.426211 -0.000000 0.140013 0.344241 -0.112860 -124.531013 748.524320 -0.000000 0.429459 0.309765 -0.362059
7.640000 -18.263643 -77.868859 -0.000000 0.142137 0.354548 -0.112864 -115.878267 787.872464 -0.000000 0.427904 0.299052 -0.362056
7.645000 -17.347084 -71.687537 -0.000000 0.144891 0.364713 -0.112859 -106.115211 827.327627 -0.000000 0.425826 0.288074 -0.362098
7.650000 -16.588772 -65.957895 -0.000000 0.148055 0.374715 -0.113094 -96.633766 866.614891 -0.000000 0.423362 0.277422 -0.361904
7.655000 -16.056455 -60.743200 -0.000000 0.151950 0.384176 -0.113278 -86.769098 905.424851 -0.000000 0.420420 0.266803 -0.361853
7.660000 -15.859210 -56.147237 -0.000000 0.156427 0.394046 -0.113585 -75.022995 943.259100 -0.000000 0.416915 0.256845 -0.361874
7.665000 -15.984196 -52.343024 -0.000000 0.161244 0.403613 -0.113852 -62.254045 979.329036 -0.000000 0.412914 0.247158 -0.361771
7.670000 -16.580489 -49.462282 -0.000000 0.166777 0.413041 -0.114066 -47.311312 1013.097747 -0.000000 0.408407 0.237817 -0.361626
7.675000 -17.745246 -47.621918 -0.000000 0.172500 0.422233 -0.114396 -31.074085 1044.047818 -0.000000 0.403393 0.228744 -0.361552
7.680000 -19.695436 -46.800317 -0.000000 0.178935 0.431192 -0.114641 -12.903097 1071.833332 -0.000000 0.397906 0.220102 -0.361577
7.685000 -22.557745 -46.830954 -0.000000 0.185728 0.439931 -0.114894 6.511945 1096.065209 -0.000000 0.391996 0.211850 -0.361509
7.690000 -26.380702 -47.374433 -0.000000 0.193034 0.448314 -0.115212 26.619982 1116.368742 -0.000000 0.385779 0.204126 -0.361411
7.695000 -31.132509 -47.948530 -0.000000 0.200661 0.456175 -0.115422 47.245567 1132.424288 -0.000000 0.379087 0.196847 -0.361355
7.700000 -36.700548 -47.984879 -0.000000 0.208685 0.463508 -0.115736 68.149249 1144.048552 -0.000000 0.371973 0.190216 -0.361227
7.705000 -42.909073 -46.871141 -0.000000 0.217083 0.470320 -0.116012 89.122723 1151.218684 -0.000000 0.364625 0.184035 -0.361113
7.710000 -49.549931 -43.968359 -0.000000 0.225724 0.476647 -0.116326 110.558028 1153.949287 -0.000000 0.356783 0.178316 -0.361159
7.715000 -56.268721 -38.825251 -0.000000 0.234154 0.482373 -0.116905 129.866660 1152.551351 -0.000000 0.348771 0.172945 -0.360997
7.720000 -62.888073 -30.905849 -0.000000 0.243187 0.487361 -0.117286 149.622784 1146.775563 -0.000000 0.340412 0.168302 -0.361037
7.725000 -69.106902 -19.988769 -0.000000 0.252816 0.491835 -0.117227 170.083277 1136.437893 -0.000000 0.331774 0.164357 -0.361036
7.730000 -74.589323 -6.430058 -0.000000 0.261911 0.495714 -0.117979 187.519867 1121.874393 -0.000000 0.322940 0.160945 -0.361030
7.735000 -79.179664 9.551242 -0.000000 0.271688 0.498961 -0.118265 205.947386 1102.101797 -0.000000 0.313884 0.158087 -0.360974
7.740000 -82.723906 27.031645 -0.000000 0.281321 0.501546 -0.118471 222.515721 1077.067128 -0.000000 0.304651 0.155923 -0.360983
7.745000 -85.171578 45.142489 -0.000000 0.290955 0.503534 -0.118666 237.516512 1046.027999 -0.000000 0.295311 0.154318 -0.360913
7.750000 -86.555024 62.931589 -0.000000 0.300572 0.504740 -0.118892 250.399452 1008.252914 -0.000000 0.285968 0.153506 -0.360878
7.755000 -86.895947 79.665928 -0.000000 0.310064 0.505589 -0.119322 261.574847 962.732637 -0.000000 0.276277 0.153309 -0.359394
7.760000 -86.493750 94.626393 -0.000000 0.319408 0.505792 -0.119402 268.368367 909.425857 -0.000000 0.266970 0.153779 -0.359248
7.765000 -85.410700 107.787415 -0.000000 0.328651 0.505427 -0.119643 271.633581 847.707424 -0.000000 0.257721 0.155465 -0.358784
7.770000 -82.937885 119.998734 -0.000000 0.337561 0.504276 -0.119705 276.449959 775.854359 -0.000000 0.245589 0.157699 -0.355345
7.775000 -82.361294 129.673439 -0.000000 0.346082 0.502484 -0.119600 262.473214 701.855999 -0.000000 0.239898 0.160836 -0.358681
7.780000 -80.799548 139.727557 -0.000000 0.354330 0.499995 -0.119374 249.444610 620.356769 -0.000000 0.231468 0.164407 -0.358328
7.785000 -79.494965 150.310189 -0.000000 0.362113 0.496902 -0.119399 230.613754 536.032408 -0.000000 0.223416 0.168461 -0.357969
7.790000 -78.257442 162.533280 -0.000000 0.369808 0.492987 -0.118947 207.603285 451.039166 -0.000000 0.215685 0.173384 -0.357498
7.795000 -77.396982 177.250790 -0.000000 0.377023 0.488234 -0.118841 180.577227 368.435144 -0.000000 0.208384 0.178822 -0.357156
7.800000 -77.069205 195.384027 -0.000000 0.383891 0.482922 -0.118563 150.898226 290.730832 -0.000000 0.201496 0.184684 -0.356876
7.805000 -77.395970 217.714607 -0.000000 0.390364 0.476728 -0.117993 120.162174 219.966260 -0.000000 0.194947 0.190859 -0.356560
7.810000 -78.796629 244.596916 -0.000000 0.396342 0.470050 -0.117472 89.652788 157.758000 -0.000000 0.188671 0.197269 -0.356549
7.815000 -81.553931 275.981841 -0.000000 0.401988 0.462882 -0.117059 60.779870 104.893857 -0.000000 0.182804 0.203902 -0.356480
7.820000 -85.576650 311.396925 -0.000000 0.407319 0.454851 -0.116833 34.719590 61.440616 -0.000000 0.177288 0.210818 -0.356583
7.825000 -90.793810 349.876543 -0.000000 0.412348 0.446083 -0.116622 12.118971 26.975546 -0.000000 0.172178 0.218153 -0.356669
7.830000 -97.475166 390.057594 -0.000000 0.417025 0.437199 -0.116611 -6.700791 0.639154 -0.000000 0.167299 0.225765 -0.356868
7.835000 -105.564136 430.573855 -0.000000 0.421317 0.427895 -0.116763 -21.585819 -18.709205 -0.000000 0.162893 0.233429 -0.357251
7.840000 -114.493571 470.331663 -0.000000 0.425199 0.418288 -0.117271 -32.605523 -32.197305 -0.000000 0.158898 0.241461 -0.358086
7.845000 -124.204137 508.473171 -0.000000 0.428605 0.408371 -0.117443 -39.923727 -40.867668 -0.000000 0.155229 0.249560 -0.358049
7.850000 -134.191327 544.703059 -0.000000 0.431490 0.398090 -0.117617 -43.772699 -45.601694 -0.000000 0.151997 0.257849 -0.358059
7.855000 -143.938760 579.145539 -0.000000 0.433952 0.387637 -0.117635 -44.416051 -47.172638 -0.000000 0.149301 0.266491 -0.358027
7.860000 -152.845089 612.253707 -0.000000 0.435712 0.377000 -0.117679 -42.177454 -46.279413 -0.000000 0.147125 0.275541 -0.358381
7.865000 -160.362376 644.649463 -0.000000 0.437152 0.366327 -0.117741 -37.460619 -43.559190 -0.000000 0.145470 0.284909 -0.358659
7.870000 -164.999662 677.240562 -0.000000 0.438129 0.355262 -0.118129 -30.794844 -39.542905 -0.000000 0.144378 0.294677 -0.358864
7.875000 -166.609193 710.512858 -0.000000 0.438645 0.344228 -0.117747 -22.635792 -34.824829 -0.000000 0.143769 0.304975 -0.359078
7.880000 -164.425792 744.898248 -0.000000 0.438662 0.332948 -0.117177 -13.483867 -29.950774 -0.000000 0.143700 0.315587 -0.359213
7.885000 -159.097934 780.251545 -0.000000 0.437977 0.321858 -0.117534 -3.782013 -25.447129 -0.000000 0.144018 0.326467 -0.358491
7.890000 -149.179920 816.624860 -0.000000 0.436625 0.310631 -0.117207 5.962327 -21.744090 -0.000000 0.145214 0.337625 -0.359125
7.895000 -135.128130 853.490087 -0.000000 0.434709 0.299411 -0.116892 15.348809 -19.226724 -0.000000 0.146756 0.348959 -0.359048
7.900000 -118.558997 890.175151 -0.000000 0.432293 0.288296 -0.116624 24.037871 -18.139456 -0.000000 0.148900 0.360046 -0.358954
7.905000 -98.541718 926.482443 -0.000000 0.429333 0.277349 -0.116319 31.679571 -18.651464 -0.000000 0.151608 0.371363 -0.358792
7.910000 -77.124027 961.837268 -0.000000 0.425939 0.266658 -0.116189 38.034208 -20.684644 -0.000000 0.154928 0.382440 -0.358729
7.915000 -54.527567 995.803496 -0.000000 0.422098 0.256272 -0.116200 42.892173 -23.996763 -0.000000 0.158713 0.393395 -0.358487
7.920000 -30.649802 1027.748628 -0.000000 0.417411 0.246213 -0.115791 46.122339 -28.153557 -0.000000 0.163062 0.404009 -0.358569
7.925000 -7.651657 1056.885913 -0.000000 0.412612 0.236672 -0.115915 47.759577 -32.457860 -0.000000 0.167895 0.414192 -0.358408
7.930000 15.746320 1082.618766 -0.000000 0.407415 0.227580 -0.116183 47.863562 -36.297824 -0.000000 0.173202 0.424147 -0.358295
7.935000 39.581773 1104.416080 -0.000000 0.401654 0.218807 -0.115997 46.637786 -39.049263 -0.000000 0.178998 0.433576 -0.358185
7.940000 63.524748 1121.846316 -0.000000 0.395253 0.210574 -0.115980 44.382972 -40.196817 -0.000000 0.185238 0.442461 -0.358082
7.945000 87.905185 1134.450815 -0.000000 0.388439 0.202555 -0.115954 41.403985 -39.392452 -0.000000 0.191844 0.450901 -0.358054
7.950000 111.646002 1141.852148 -0.000000 0.381223 0.195285 -0.115863 38.019315 -36.346566 -0.000000 0.198961 0.458774 -0.358085
7.955000 134.393601 1143.674001 -0.000000 0.373731 0.188506 -0.115764 34.443043 -30.879712 -0.000000 0.206337 0.466193 -0.357943
7.960000 156.142165 1139.567606 -0.000000 0.365794 0.182245 -0.115617 30.802159 -22.909143 -0.000000 0.214024 0.472932 -0.357020
